<svg xmlns="http://www.w3.org/2000/svg" xmlns:xlink="http://www.w3.org/1999/xlink" version="1.1" width="512" height="512" x="0" y="0" viewBox="0 0 128 128" style="enable-background:new 0 0 512 512" xml:space="preserve"><g><path fill="#71a58a" d="M38.859 38.859H13.718V26.227c0-6.908 5.6-12.509 12.509-12.509h12.632z" opacity="1" data-original="#71a58a"/><path fill="#ffeead" d="M38.859 13.718H64v25.141H38.859z" opacity="1" data-original="#ffeead"/><path fill="#71a58a" d="M64 13.718h25.141v25.141H64z" opacity="1" data-original="#71a58a"/><path fill="#ffeead" d="M114.282 38.859H89.141V13.718h12.632c6.908 0 12.509 5.6 12.509 12.509zM13.718 38.859h25.141V64H13.718z" opacity="1" data-original="#ffeead"/><path fill="#71a58a" d="M38.859 38.859H64V64H38.859z" opacity="1" data-original="#71a58a"/><path fill="#ffeead" d="M64 38.859h25.141V64H64z" opacity="1" data-original="#ffeead"/><path fill="#71a58a" d="M89.141 38.859h25.141V64H89.141zM13.718 64h25.141v25.141H13.718z" opacity="1" data-original="#71a58a"/><path fill="#ffeead" d="M38.859 64H64v25.141H38.859z" opacity="1" data-original="#ffeead"/><path fill="#71a58a" d="M64 64h25.141v25.141H64z" opacity="1" data-original="#71a58a"/><path fill="#ffeead" d="M89.141 64h25.141v25.141H89.141zM38.859 114.282H26.227c-6.908 0-12.509-5.6-12.509-12.509V89.141h25.141z" opacity="1" data-original="#ffeead"/><path fill="#71a58a" d="M38.859 89.141H64v25.141H38.859z" opacity="1" data-original="#71a58a"/><path fill="#ffeead" d="M64 89.141h25.141v25.141H64z" opacity="1" data-original="#ffeead"/><path fill="#71a58a" d="M101.773 114.282H89.141V89.141h25.141v12.632c0 6.909-5.6 12.509-12.509 12.509z" opacity="1" data-original="#71a58a"/><path fill="#c9b77d" d="M64 23.912a58.815 58.815 0 0 0-1.894-.48 1.797 1.797 0 0 0-2.207 1.753v6.79l-7.722 3.393s-1.501 1.501-1.751 2.502c-.039.156-.312.514-.729.989H64z" opacity="1" data-original="#c9b77d"/><path fill="#639376" d="M84.038 38.859a18.955 18.955 0 0 0-.779-2.38C80.255 29.235 69.858 25.491 64 23.912v14.946h20.038zM43.49 44.652a2.389 2.389 0 0 0-.216 3.626l4 3.863a3.689 3.689 0 0 0 2.928 1.018l7.506-2.656c1.432-.141 2.303 1.532 1.361 2.62a96.002 96.002 0 0 0-8.109 10.878H64V38.859H49.696c-1.357 1.542-4.302 4.356-6.206 5.793z" opacity="1" data-original="#639376"/><path fill="#c9b77d" d="M64 64h21.824c.135-8.469-.121-18.859-1.786-25.141H64zM64 64H50.961c-2.271 3.541-4.579 7.649-6.572 12.208a3.354 3.354 0 0 0 1.282 4.175c2.3 1.458 5.571 4.01 6.814 7.316h-1.739c-1.082 0-2.02.581-2.544 1.442H64z" opacity="1" data-original="#c9b77d"/><path fill="#639376" d="M77.254 87.699h-1s2.467-6.728 7.401-9.291c1.023-.531 1.67-1.574 1.737-2.724.14-2.417.353-6.719.432-11.684H64v25.141h15.798a2.976 2.976 0 0 0-2.544-1.442zM48.202 89.141a2.96 2.96 0 0 0-.442 1.545v3.003h-4.672a3.786 3.786 0 0 0-3.775 3.775v1.966a3.786 3.786 0 0 0 3.775 3.775h.226v5.372a3.19 3.19 0 0 0 3.19 3.19H64V89.141z" opacity="1" data-original="#639376"/><path fill="#c9b77d" d="M64 111.766h17.496a3.19 3.19 0 0 0 3.19-3.19v-5.372h.226a3.786 3.786 0 0 0 3.775-3.775v-1.966a3.786 3.786 0 0 0-3.775-3.775H80.24v-3.003a2.96 2.96 0 0 0-.442-1.545H64z" opacity="1" data-original="#c9b77d"/><path fill="#ff6f69" d="m59.694 25.379-8.106 3.562s-1.576 1.576-1.838 2.626c-.173.694-4.667 5.146-7.28 7.119a2.507 2.507 0 0 0-.227 3.806l4.199 4.055a3.876 3.876 0 0 0 3.074 1.069l7.88-2.788c1.503-.148 2.418 1.608 1.429 2.75-3.795 4.381-10.509 13.02-15.411 24.234a3.521 3.521 0 0 0 1.346 4.383c2.414 1.531 5.848 4.209 7.153 7.68h24.951s2.59-7.063 7.77-9.754c1.074-.558 1.753-1.652 1.823-2.86.434-7.469 1.528-32.071-2.239-41.156-3.529-8.51-16.796-12.427-22.205-13.696a1.887 1.887 0 0 0-2.317 1.841zM81.048 90.162H46.952V87.01a3.136 3.136 0 0 1 3.135-3.135h27.826a3.136 3.136 0 0 1 3.135 3.135z" opacity="1" data-original="#ff6f69"/><path fill="#99734a" d="M85.952 100.151H42.048a3.974 3.974 0 0 1-3.962-3.962v-2.064a3.974 3.974 0 0 1 3.962-3.962h43.904a3.974 3.974 0 0 1 3.962 3.962v2.064a3.974 3.974 0 0 1-3.962 3.962z" opacity="1" data-original="#99734a"/><path fill="#825e3b" d="M45.634 109.139h36.732a3.348 3.348 0 0 0 3.348-3.348v-5.64H42.286v5.64a3.348 3.348 0 0 0 3.348 3.348z" opacity="1" data-original="#825e3b"/><path fill="#e05858" d="M44.759 76.195c2.414 1.531 5.848 4.209 7.153 7.68h24.951s2.59-7.063 7.77-9.754c.685-.356 1.186-.943 1.494-1.627-3.215 2.424-9.318 4.613-21.506 5.2-14.801.712-19.794-2.19-21.478-4.141a3.524 3.524 0 0 0 1.616 2.642z" opacity="1" data-original="#e05858"/><path fill="#e05858" d="M62.012 16.41a1.887 1.887 0 0 0-2.317 1.841v7.127s16.271 3.211 16.973 9.525c.701 6.314 2.017 27.461 3.069 32.057.533 2.329 3.38 4.42 6.243 5.851.27-.467.445-.993.478-1.55.434-7.469 1.528-32.071-2.239-41.156-3.531-8.509-16.798-12.426-22.207-13.695z" opacity="1" data-original="#e05858"/><circle cx="55.497" cy="34.339" r="1.276" fill="#bf4343" opacity="1" data-original="#bf4343"/><path fill="#e05858" d="M64.209 37.095c-.357.877-1.309 3.42-2.458 4.209s-4.901 2.455-9.373 4.384c-3.708 1.6-4.802 1.537-5.069 1.469a3.86 3.86 0 0 0 2.208.458l7.88-2.788c1.503-.148 2.418 1.608 1.429 2.75-2.584 2.982-6.52 7.942-10.316 14.34 2.548-2.467 5.918-5.656 8.264-7.899 4.22-4.034 8.319-9.207 8.582-11.399.262-2.192-.79-6.401-1.147-5.524z" opacity="1" data-original="#e05858"/></g></svg>